<?xml version="1.0" encoding="UTF-8"?>
<svg width="256" height="256" version="1.1"
     xmlns="http://www.w3.org/2000/svg"
     xmlns:xlink="http://www.w3.org/1999/xlink">
  <defs>
    <linearGradient id="Gradient" x1="0" x2="0" y1="0" y2="1">
      <stop offset="0%" style="stop-color:#4A4A4A;stop-opacity:1" />
      <stop offset="100%" style="stop-color:#6C6C6C;stop-opacity:1" />
    </linearGradient>
    <filter id="alpha-to-white">
      <feColorMatrix in="SourceGraphic" type="matrix"
                     values="0 0 0 0 1 0 0 0 0 1 0 0 0 0 1 0 0 0 1 0"/>
    </filter>
    <g id="child-svg">
      <svg xmlns="http://www.w3.org/2000/svg" version="1.1" width="64" height="64">
        <path d="M0 0 C0.9075 0.00257812 1.815 0.00515625 2.75 0.0078125 C4.11125 0.00394531 4.11125 0.00394531 5.5 0 C7.75 0.1328125 7.75 0.1328125 8.75 1.1328125 C8.83737645 2.98650861 8.85698153 4.84348791 8.84765625 6.69921875 C8.84443359 7.82392578 8.84121094 8.94863281 8.83789062 10.10742188 C8.82532227 11.88342773 8.82532227 11.88342773 8.8125 13.6953125 C8.80798828 14.88318359 8.80347656 16.07105469 8.79882812 17.29492188 C8.78699675 20.24093476 8.77051287 23.18684931 8.75 26.1328125 C9.5020874 26.12757568 10.2541748 26.12233887 11.02905273 26.11694336 C14.41519342 26.09624023 17.80132084 26.08317373 21.1875 26.0703125 C22.37150391 26.06193359 23.55550781 26.05355469 24.77539062 26.04492188 C25.90009766 26.04169922 27.02480469 26.03847656 28.18359375 26.03515625 C29.22572021 26.02991943 30.26784668 26.02468262 31.34155273 26.01928711 C33.75 26.1328125 33.75 26.1328125 34.75 27.1328125 C34.84823937 28.79710301 34.87973631 30.46563181 34.875 32.1328125 C34.87886719 33.4940625 34.87886719 33.4940625 34.8828125 34.8828125 C34.75 37.1328125 34.75 37.1328125 33.75 38.1328125 C31.89630389 38.22018895 30.03932459 38.23979403 28.18359375 38.23046875 C27.05888672 38.22724609 25.93417969 38.22402344 24.77539062 38.22070312 C23.59138672 38.21232422 22.40738281 38.20394531 21.1875 38.1953125 C19.99962891 38.19080078 18.81175781 38.18628906 17.58789062 38.18164062 C14.64187774 38.16980925 11.69596319 38.15332537 8.75 38.1328125 C8.75523682 38.8848999 8.76047363 39.6369873 8.76586914 40.41186523 C8.78657227 43.79800592 8.79963877 47.18413334 8.8125 50.5703125 C8.82087891 51.75431641 8.82925781 52.93832031 8.83789062 54.15820312 C8.84111328 55.28291016 8.84433594 56.40761719 8.84765625 57.56640625 C8.85289307 58.60853271 8.85812988 59.65065918 8.86352539 60.72436523 C8.75 63.1328125 8.75 63.1328125 7.75 64.1328125 C6.08570949 64.23105187 4.41718069 64.26254881 2.75 64.2578125 C1.38875 64.26167969 1.38875 64.26167969 0 64.265625 C-2.25 64.1328125 -2.25 64.1328125 -3.25 63.1328125 C-3.33737645 61.27911639 -3.35698153 59.42213709 -3.34765625 57.56640625 C-3.34443359 56.44169922 -3.34121094 55.31699219 -3.33789062 54.15820312 C-3.32951172 52.97419922 -3.32113281 51.79019531 -3.3125 50.5703125 C-3.30798828 49.38244141 -3.30347656 48.19457031 -3.29882812 46.97070312 C-3.28699675 44.02469024 -3.27051287 41.07877569 -3.25 38.1328125 C-4.0020874 38.13804932 -4.7541748 38.14328613 -5.52905273 38.14868164 C-8.91519342 38.16938477 -12.30132084 38.18245127 -15.6875 38.1953125 C-17.46350586 38.20788086 -17.46350586 38.20788086 -19.27539062 38.22070312 C-20.40009766 38.22392578 -21.52480469 38.22714844 -22.68359375 38.23046875 C-24.24678345 38.23832397 -24.24678345 38.23832397 -25.84155273 38.24633789 C-28.25 38.1328125 -28.25 38.1328125 -29.25 37.1328125 C-29.34823937 35.46852199 -29.37973631 33.79999319 -29.375 32.1328125 C-29.37757812 31.2253125 -29.38015625 30.3178125 -29.3828125 29.3828125 C-29.25 27.1328125 -29.25 27.1328125 -28.25 26.1328125 C-26.39630389 26.04543605 -24.53932459 26.02583097 -22.68359375 26.03515625 C-21.55888672 26.03837891 -20.43417969 26.04160156 -19.27539062 26.04492188 C-18.09138672 26.05330078 -16.90738281 26.06167969 -15.6875 26.0703125 C-14.49962891 26.07482422 -13.31175781 26.07933594 -12.08789062 26.08398438 C-9.14187774 26.09581575 -6.19596319 26.11229963 -3.25 26.1328125 C-3.25785522 25.0046814 -3.25785522 25.0046814 -3.26586914 23.85375977 C-3.28657227 20.46761908 -3.29963877 17.08149166 -3.3125 13.6953125 C-3.32087891 12.51130859 -3.32925781 11.32730469 -3.33789062 10.10742188 C-3.34272461 8.42036133 -3.34272461 8.42036133 -3.34765625 6.69921875 C-3.35289307 5.65709229 -3.35812988 4.61496582 -3.36352539 3.54125977 C-3.21514309 0.39332133 -3.1364802 0.18513946 0 0 Z " fill="#4CAE50" transform="translate(29.25,-0.1328125)" />
      </svg>
    </g>
  </defs>
  <rect
      width="256"
      height="256"
      fill="url(#Gradient)"
      ry="128"
      x="0"
      y="0" />
  <use xlink:href="#child-svg" filter="url(#alpha-to-white)"
       transform="matrix(2,0,0,2,64,64)" />
</svg>
